<svg xmlns="http://www.w3.org/2000/svg" width="256" height="256" viewBox="0 0 256 256" role="img" aria-label="Smart Hospital logo">
  <defs>
    <linearGradient id="bg" x1="0" y1="0" x2="1" y2="1">
      <stop offset="0%" stop-color="#0ea5e9"/>
      <stop offset="100%" stop-color="#2563eb"/>
    </linearGradient>
    <linearGradient id="pulse" x1="0" y1="0" x2="1" y2="0">
      <stop offset="0%" stop-color="#34d399"/>
      <stop offset="100%" stop-color="#10b981"/>
    </linearGradient>
  </defs>

  <rect x="16" y="16" width="224" height="224" rx="56" fill="url(#bg)"/>

  <path d="M128 58c39.8 0 72 32.2 72 72s-32.2 72-72 72-72-32.2-72-72 32.2-72 72-72zm0 18c-29.8 0-54 24.2-54 54s24.2 54 54 54 54-24.2 54-54-24.2-54-54-54z" fill="#ffffff"/>

  <rect x="118" y="94" width="20" height="72" rx="10" fill="#ffffff"/>
  <rect x="92" y="120" width="72" height="20" rx="10" fill="#ffffff"/>

  <path d="M42 176h34l12-16 16 22 20-30 16 24h22" fill="none" stroke="url(#pulse)" stroke-width="10" stroke-linecap="round" stroke-linejoin="round"/>
</svg>
